<svg width="256" height="256" viewBox="0 0 256 256" fill="none" xmlns="http://www.w3.org/2000/svg">
<g id="Frame">
<path id="Vector" d="M232.592 107.109H224V106.667H128V149.333H188.283C179.488 174.171 155.856 192 128 192C92.656 192 64 163.344 64 128C64 92.656 92.656 64 128 64C144.315 64 159.157 70.1547 170.459 80.208L200.629 50.0374C181.579 32.2827 156.096 21.3334 128 21.3334C69.0934 21.3334 21.3334 69.0934 21.3334 128C21.3334 186.907 69.0934 234.667 128 234.667C186.907 234.667 234.667 186.907 234.667 128C234.667 120.848 233.931 113.867 232.592 107.109Z" fill="#FCA204"/>
<path id="Vector_2" d="M33.632 78.352L68.6773 104.053C78.16 80.576 101.125 64 128 64C144.315 64 159.157 70.1547 170.459 80.208L200.629 50.0374C181.579 32.2827 156.096 21.3334 128 21.3334C87.0293 21.3334 51.4986 44.464 33.632 78.352Z" fill="#FE2A3E"/>
<path id="Vector_3" d="M128 234.667C155.552 234.667 180.587 224.123 199.515 206.976L166.501 179.04C155.792 187.152 142.48 192 128 192C100.256 192 76.6987 174.309 67.824 149.621L33.04 176.421C50.6934 210.965 86.544 234.667 128 234.667Z" fill="#03A34D"/>
<path id="Vector_4" d="M232.592 107.109H224V106.667H128V149.333H188.283C184.059 161.264 176.384 171.552 166.485 179.045L166.501 179.035L199.515 206.971C197.179 209.093 234.667 181.333 234.667 128C234.667 120.848 233.931 113.867 232.592 107.109Z" fill="#0097ED"/>
<path id="Vector 6" d="M125 149H106V75H115V140H125V149Z" fill="#0097ED"/>
<path id="Subtract" d="M103 95V132H85V140H103V149H75V95H103ZM85 104V123H93V104H85Z" fill="#FE2A3E"/>
<path id="Vector 4" d="M75 145V108.5L85 115V123H93V120.5L103 127L95 132H85V138.5L75 145Z" fill="#FCA204"/>
<g id="Vector 5">
<path d="M85 138.5L75 145V149H103V140H85V138.5Z" fill="#03A34D"/>
<path d="M103 127L95 132H103V127Z" fill="#03A34D"/>
</g>
</g>
</svg>
